<svg width="34" height="34" viewBox="0 0 34 34" fill="none" xmlns="http://www.w3.org/2000/svg">
<g clip-path="url(#clip0_30_1193)">
<circle cx="17" cy="17" r="17" fill="white"/>
<path d="M23.5708 25C24.8328 25 25.8568 23.977 25.8568 22.714V18.143L26.9998 17L25.8568 15.857V11.286C25.8568 10.023 24.8338 9 23.5708 9M10.429 9C9.166 9 8.143 10.023 8.143 11.286V15.857L7 17L8.143 18.143V22.714C8.143 23.977 9.166 25 10.429 25M12.5 17H12.51M17 17H17.01M21.5 17H21.51M13 17C13 17.2761 12.7761 17.5 12.5 17.5C12.2239 17.5 12 17.2761 12 17C12 16.7239 12.2239 16.5 12.5 16.5C12.7761 16.5 13 16.7239 13 17ZM17.5 17C17.5 17.2761 17.2761 17.5 17 17.5C16.7239 17.5 16.5 17.2761 16.5 17C16.5 16.7239 16.7239 16.5 17 16.5C17.2761 16.5 17.5 16.7239 17.5 17ZM22 17C22 17.2761 21.7761 17.5 21.5 17.5C21.2239 17.5 21 17.2761 21 17C21 16.7239 21.2239 16.5 21.5 16.5C21.7761 16.5 22 16.7239 22 17Z" stroke="black" stroke-width="2" stroke-linecap="round" stroke-linejoin="round"/>
</g>
<defs>
<clipPath id="clip0_30_1193">
<rect width="34" height="34" fill="white"/>
</clipPath>
</defs>
</svg>
